<!DOCTYPE svg PUBLIC "-//W3C//DTD SVG 1.1//EN" "http://www.w3.org/Graphics/SVG/1.1/DTD/svg11.dtd">
<!-- Uploaded to: SVG Repo, www.svgrepo.com, Transformed by: SVG Repo Mixer Tools -->
<svg version="1.1" id="Layer_1" xmlns="http://www.w3.org/2000/svg" xmlns:xlink="http://www.w3.org/1999/xlink" viewBox="0 0 512 512" xml:space="preserve" width="800px" height="800px" fill="#000000">
<g id="SVGRepo_bgCarrier" stroke-width="0"/>
<g id="SVGRepo_tracerCarrier" stroke-linecap="round" stroke-linejoin="round"/>
<g id="SVGRepo_iconCarrier"> <path style="fill:#d23737;" d="M391.421,260.015c-172.18,0-195.711-175.833-195.711-175.833H28.434 C28.434,229.055,0,253.925,0,362.579v39.434h451.71v-39.434C451.71,295.984,458.015,260.015,391.421,260.015z"/> <path style="fill:#F7F7F8;" d="M512,362.579c0-66.594-53.985-102.563-120.579-102.563v141.997H512V362.579z"/> <rect y="372.867" style="fill:#E9E9EA;" width="512" height="54.951"/> <rect y="400.337" style="fill:#D9D8DB;" width="512" height="27.472"/> <circle style="fill:#BFE436;" cx="110.035" cy="254.294" r="56.932"/> <path style="fill:#A4D95E;" d="M166.957,254.289c0,31.439-25.486,56.927-56.927,56.927V197.363 C141.47,197.363,166.957,222.85,166.957,254.289z"/> <g> <path style="fill:#BFE436;" d="M177.128,168.27l39.402-18.966c-5.328-11.15-9.371-21.774-12.407-31.086l-41.478,19.966 L177.128,168.27z"/> <path style="fill:#BFE436;" d="M217.391,229.959l31.262-31.262c-7.708-8.808-14.334-18.007-20.024-27.198l-34.849,34.849 L217.391,229.959z"/> <path style="fill:#BFE436;" d="M270.388,273.494l22.462-38.158c-10.05-5.835-19.09-12.456-27.214-19.593l-24.024,40.812 L270.388,273.494z"/> <path style="fill:#BFE436;" d="M334.671,299.12l8.872-44.153c-11.524-2.573-22.165-6.056-31.997-10.26l-9.612,47.834 L334.671,299.12z"/> </g> </g>
</svg>